<svg width="164" height="53" viewBox="0 0 164 53" fill="none" xmlns="http://www.w3.org/2000/svg">
<path d="M130.475 5.40506C131.275 5.40506 131.923 4.74508 131.923 3.93096C131.923 3.11683 131.275 2.45685 130.475 2.45685C129.675 2.45685 129.026 3.11683 129.026 3.93096C129.026 4.74508 129.675 5.40506 130.475 5.40506Z" fill="black"/>
<path d="M129.281 8.616C129.696 9.04452 129.904 9.25877 130.146 9.33976C130.358 9.41033 130.592 9.41033 130.803 9.33976C131.046 9.25877 131.253 9.04452 131.668 8.616C133.129 7.10808 134.338 5.64809 134.338 3.93096C134.338 1.75995 132.608 0 130.475 0C128.342 0 126.612 1.75995 126.612 3.93096C126.612 5.64809 127.82 7.10808 129.281 8.616Z" fill="black"/>
<path d="M13.5855 40.6497C12.4218 40.6497 11.4785 39.6897 11.4785 38.5055V12.2782C11.4785 11.094 10.5352 10.134 9.37161 10.134H2.10693C0.943303 10.134 0 9.17404 0 7.98985V5.74278C0 4.55859 0.943303 3.59862 2.10693 3.59862H27.7271C28.8908 3.59862 29.8341 4.55859 29.8341 5.74278V7.98985C29.8341 9.17403 28.8908 10.134 27.7271 10.134H20.4625C19.2988 10.134 18.3555 11.094 18.3555 12.2782V38.5055C18.3555 39.6897 17.4122 40.6497 16.2486 40.6497H13.5855Z" fill="black"/>
<path d="M33.4856 40.6497C32.322 40.6497 31.3787 39.6897 31.3787 38.5055V15.0055C31.3787 13.8214 32.322 12.8614 33.4856 12.8614H35.7585C36.6908 12.8614 37.4467 13.6305 37.4467 14.5793V18.7267C37.4467 19.0269 37.0723 19.1559 36.8931 18.9174C36.8285 18.8314 36.8117 18.7176 36.8505 18.6169C37.1971 17.7199 37.6486 16.8992 38.2051 16.1548C38.7951 15.3658 39.5199 14.7139 40.3795 14.1993C41.0369 13.7877 41.7532 13.4703 42.5286 13.2473C43.3039 13.0072 44.1045 12.8614 44.9305 12.8099C45.1361 12.7928 45.3417 12.7811 45.5473 12.7746C46.6114 12.7412 47.4082 13.6756 47.4082 14.759V16.6686C47.4082 18.0224 46.0793 19.0528 44.7535 19.1652C43.759 19.2338 42.8572 19.4654 42.0482 19.8599C41.2391 20.2373 40.5565 20.7433 40.0002 21.378C39.444 21.9955 39.0226 22.7331 38.7361 23.5907C38.4496 24.4313 38.3063 25.3833 38.3063 26.4468V38.5055C38.3063 39.6897 37.363 40.6497 36.1994 40.6497H33.4856Z" fill="black"/>
<path d="M54.8301 40.6497C53.6665 40.6497 52.7232 39.6897 52.7232 38.5055V15.0055C52.7232 13.8214 53.6665 12.8614 54.8301 12.8614H57.4933C58.6569 12.8614 59.6002 13.8213 59.6002 15.0055V38.5055C59.6002 39.6897 58.6569 40.6497 57.4933 40.6497H54.8301Z" fill="black"/>
<path d="M80.58 41.4215C77.8663 41.4215 75.5993 40.7783 73.7789 39.4918C71.9585 38.2053 70.5848 36.4557 69.6577 34.2429C68.7475 32.0301 68.2924 29.5343 68.2924 26.7555C68.2924 23.9767 68.7475 21.4809 69.6577 19.2681C70.5679 17.0553 71.9079 15.3057 73.6777 14.0192C75.4476 12.7327 77.6303 12.0895 80.2261 12.0895C82.8387 12.0895 85.1141 12.7242 87.0525 13.9935C88.9909 15.2628 90.491 17.0039 91.5529 19.2167C92.6316 21.4123 93.171 23.9252 93.171 26.7555C93.171 29.5343 92.6401 32.0301 91.5782 34.2429C90.5331 36.4557 89.0667 38.2053 87.1789 39.4918C85.2911 40.7783 83.0915 41.4215 80.58 41.4215ZM69.2363 53C68.0727 53 67.1294 52.04 67.1294 50.8558V15.0055C67.1294 13.8214 68.0727 12.8614 69.2363 12.8614H71.0904C72.2541 12.8614 73.1974 13.8213 73.1974 15.0055V31.4641C73.1974 31.7057 73.3898 31.9015 73.6272 31.9015C73.8646 31.9015 74.057 32.0973 74.057 32.3389V50.8558C74.057 52.04 73.1137 53 71.9501 53H69.2363ZM79.4676 35.1949C80.9508 35.1949 82.1644 34.8175 83.1083 34.0628C84.0522 33.3081 84.7517 32.296 85.2068 31.0267C85.6619 29.7402 85.8895 28.3165 85.8895 26.7555C85.8895 25.2117 85.6535 23.8052 85.1816 22.5358C84.7096 21.2493 83.9764 20.2287 82.9819 19.474C82.0043 18.7021 80.7486 18.3161 79.2147 18.3161C77.782 18.3161 76.619 18.6678 75.7257 19.371C74.8492 20.0743 74.2087 21.0606 73.8042 22.33C73.3996 23.5993 73.1974 25.0745 73.1974 26.7555C73.1974 28.4365 73.3996 29.9117 73.8042 31.1811C74.2087 32.4504 74.866 33.4367 75.7762 34.14C76.7033 34.8433 77.9337 35.1949 79.4676 35.1949Z" fill="black"/>
<path d="M106.274 40.6497C105.11 40.6497 104.167 39.6897 104.167 38.5055V12.2782C104.167 11.094 103.223 10.134 102.06 10.134H94.7952C93.6316 10.134 92.6883 9.17404 92.6883 7.98985V5.74278C92.6883 4.55859 93.6316 3.59862 94.7952 3.59862H120.415C121.579 3.59862 122.522 4.55859 122.522 5.74278V7.98985C122.522 9.17403 121.579 10.134 120.415 10.134H113.151C111.987 10.134 111.044 11.094 111.044 12.2782V38.5055C111.044 39.6897 110.1 40.6497 108.937 40.6497H106.274Z" fill="black"/>
<path d="M129.198 40.6497C128.034 40.6497 127.091 39.6897 127.091 38.5055V15.0055C127.091 13.8214 128.034 12.8614 129.198 12.8614H131.861C133.025 12.8614 133.968 13.8213 133.968 15.0055V38.5055C133.968 39.6897 133.025 40.6497 131.861 40.6497H129.198Z" fill="black"/>
<path d="M142.584 40.6497C140.875 40.6497 139.877 38.6879 140.863 37.2677L147.413 27.8397C147.928 27.0975 147.928 26.105 147.412 25.3631L141.069 16.2444C140.082 14.8243 141.079 12.8614 142.789 12.8614H145.687C146.387 12.8614 147.042 13.2153 147.433 13.8059L150.505 18.4374C151.345 19.7034 153.179 19.6953 154.008 18.422L157.003 13.8213C157.393 13.2219 158.053 12.8614 158.759 12.8614H161.646C163.355 12.8614 164.353 14.8243 163.365 16.2443L157.025 25.3599C156.508 26.1034 156.509 27.0982 157.027 27.8407L163.607 37.2635C164.598 38.6831 163.601 40.6497 161.889 40.6497H159.006C158.303 40.6497 157.646 40.2924 157.255 39.6973L154.011 34.761C153.179 33.4944 151.351 33.4905 150.513 34.7536L147.231 39.7047C146.839 40.2955 146.185 40.6497 145.484 40.6497H142.584Z" fill="black"/>
</svg>
